<svg xmlns="http://www.w3.org/2000/svg" xmlns:xlink="http://www.w3.org/1999/xlink" width="500" zoomAndPan="magnify" viewBox="0 0 375 374.999991" height="500" preserveAspectRatio="xMidYMid meet" version="1.0"><defs><clipPath id="e83d77f542"><path d="M 6.816406 0 L 368.316406 0 L 368.316406 375 L 6.816406 375 Z M 6.816406 0 " clip-rule="nonzero"/></clipPath><clipPath id="5daf352aec"><path d="M 77.617188 234.566406 C 77.617188 234.566406 138.019531 103.414062 225.714844 4.628906 C 222.933594 4.023438 220.136719 3.480469 217.328125 3.003906 C 214.519531 2.527344 211.699219 2.121094 208.875 1.777344 C 206.046875 1.433594 203.210938 1.160156 200.371094 0.949219 C 197.527344 0.742188 194.683594 0.601562 191.835938 0.527344 C 188.988281 0.453125 186.140625 0.445312 183.292969 0.507812 C 180.445312 0.570312 177.601562 0.695312 174.757812 0.890625 C 171.914062 1.085938 169.078125 1.351562 166.25 1.679688 C 163.421875 2.007812 160.601562 2.40625 157.789062 2.867188 C 154.980469 3.332031 152.179688 3.859375 149.394531 4.453125 C 146.609375 5.050781 143.839844 5.710938 141.085938 6.4375 C 138.328125 7.164062 135.59375 7.953125 132.875 8.808594 C 130.160156 9.664062 127.464844 10.585938 124.789062 11.566406 C 122.117188 12.550781 119.46875 13.597656 116.84375 14.703125 C 114.21875 15.8125 111.621094 16.984375 109.054688 18.214844 C 106.484375 19.445312 103.945312 20.738281 101.4375 22.085938 C 98.929688 23.4375 96.457031 24.847656 94.015625 26.316406 C 91.574219 27.785156 89.167969 29.308594 86.800781 30.890625 C 84.429688 32.472656 82.101562 34.109375 79.808594 35.804688 C 77.515625 37.496094 75.265625 39.242188 73.058594 41.039062 C 70.847656 42.835938 68.683594 44.6875 66.5625 46.589844 C 64.441406 48.488281 62.363281 50.441406 60.335938 52.4375 C 58.304688 54.4375 56.324219 56.484375 54.390625 58.578125 C 52.460938 60.667969 50.578125 62.808594 48.746094 64.988281 C 46.914062 67.171875 45.136719 69.394531 43.410156 71.660156 C 41.683594 73.925781 40.011719 76.230469 38.394531 78.578125 C 36.777344 80.921875 35.214844 83.304688 33.710938 85.722656 C 32.207031 88.140625 30.757812 90.59375 29.371094 93.082031 C 27.980469 95.570312 26.652344 98.089844 25.382812 100.636719 C 24.113281 103.1875 22.90625 105.765625 21.757812 108.375 C 20.609375 110.980469 19.523438 113.613281 18.5 116.273438 C 17.480469 118.933594 16.519531 121.613281 15.621094 124.316406 C 14.726562 127.019531 13.894531 129.746094 13.128906 132.488281 C 12.359375 135.230469 11.65625 137.992188 11.019531 140.769531 C 10.382812 143.542969 9.8125 146.335938 9.308594 149.136719 C 8.804688 151.941406 8.363281 154.757812 7.992188 157.582031 C 7.621094 160.40625 7.316406 163.234375 7.078125 166.074219 C 6.839844 168.914062 6.667969 171.757812 6.566406 174.601562 C 6.460938 177.449219 6.425781 180.296875 6.457031 183.144531 C 6.488281 185.996094 6.585938 188.839844 6.753906 191.683594 C 6.917969 194.527344 7.152344 197.367188 7.449219 200.199219 C 7.75 203.03125 8.117188 205.855469 8.550781 208.671875 C 8.984375 211.488281 9.484375 214.292969 10.050781 217.082031 C 10.617188 219.875 11.25 222.652344 11.945312 225.414062 C 12.644531 228.175781 13.40625 230.917969 14.234375 233.644531 C 15.058594 236.371094 15.949219 239.078125 16.90625 241.761719 C 17.859375 244.445312 18.878906 247.105469 19.960938 249.738281 C 21.039062 252.375 22.183594 254.984375 23.386719 257.566406 C 24.59375 260.148438 25.855469 262.699219 27.183594 265.21875 C 28.507812 267.742188 29.890625 270.230469 31.332031 272.6875 C 32.777344 275.144531 34.277344 277.566406 35.832031 279.949219 C 37.390625 282.335938 39.003906 284.683594 40.671875 286.992188 C 42.339844 289.300781 44.0625 291.570312 45.835938 293.796875 C 47.613281 296.023438 49.4375 298.210938 51.316406 300.351562 C 53.195312 302.492188 55.125 304.585938 57.101562 306.636719 C 59.082031 308.6875 61.105469 310.691406 63.179688 312.644531 C 65.25 314.597656 67.367188 316.503906 69.53125 318.359375 C 71.695312 320.210938 73.898438 322.015625 76.148438 323.761719 C 78.394531 325.511719 80.683594 327.210938 83.011719 328.851562 C 85.339844 330.492188 87.703125 332.078125 90.105469 333.609375 C 92.511719 335.136719 94.949219 336.609375 97.421875 338.023438 C 99.894531 339.4375 102.398438 340.792969 104.933594 342.089844 C 107.472656 343.386719 110.039062 344.621094 112.632812 345.796875 C 115.226562 346.972656 117.851562 348.085938 120.496094 349.136719 C 123.144531 350.1875 125.816406 351.171875 128.511719 352.097656 L 125.503906 374.003906 L 129.003906 374.480469 L 138.226562 351.027344 C 152.777344 315.195312 177.285156 259.953125 204.03125 220.675781 C 204.03125 220.625 132.367188 218.636719 77.617188 234.566406 Z M 319.285156 57.578125 C 283.046875 83.238281 238.265625 122.109375 202.109375 175.84375 C 202.109375 175.84375 300.605469 162.902344 340.464844 160.914062 C 340.464844 160.914062 227.566406 258.152344 147.242188 357.414062 C 149.582031 357.949219 151.929688 358.4375 154.289062 358.878906 C 156.648438 359.320312 159.015625 359.714844 161.390625 360.0625 C 163.765625 360.410156 166.144531 360.707031 168.53125 360.960938 C 170.917969 361.214844 173.308594 361.417969 175.703125 361.574219 C 178.097656 361.730469 180.496094 361.839844 182.894531 361.902344 C 185.292969 361.964844 187.691406 361.980469 190.089844 361.945312 C 192.492188 361.910156 194.890625 361.828125 197.285156 361.699219 C 199.679688 361.570312 202.074219 361.394531 204.464844 361.167969 C 206.851562 360.945312 209.238281 360.671875 211.613281 360.351562 C 213.992188 360.03125 216.363281 359.664062 218.726562 359.25 C 221.09375 358.835938 223.445312 358.375 225.792969 357.867188 C 228.136719 357.359375 230.472656 356.804688 232.796875 356.203125 C 235.117188 355.601562 237.429688 354.957031 239.726562 354.261719 C 242.023438 353.570312 244.308594 352.832031 246.574219 352.046875 C 248.84375 351.261719 251.09375 350.433594 253.332031 349.558594 C 255.566406 348.6875 257.78125 347.769531 259.980469 346.804688 C 262.179688 345.84375 264.359375 344.839844 266.515625 343.789062 C 268.675781 342.742188 270.8125 341.648438 272.925781 340.515625 C 275.042969 339.382812 277.132812 338.207031 279.199219 336.988281 C 281.269531 335.769531 283.3125 334.511719 285.332031 333.214844 C 287.347656 331.914062 289.339844 330.578125 291.304688 329.199219 C 293.269531 327.820312 295.207031 326.40625 297.113281 324.949219 C 299.023438 323.492188 300.902344 322 302.75 320.472656 C 304.597656 318.941406 306.414062 317.375 308.203125 315.773438 C 309.988281 314.167969 311.742188 312.53125 313.464844 310.859375 C 315.183594 309.1875 316.871094 307.480469 318.523438 305.742188 C 320.179688 304.003906 321.796875 302.230469 323.378906 300.425781 C 324.960938 298.621094 326.507812 296.789062 328.015625 294.921875 C 329.527344 293.058594 331 291.160156 332.433594 289.238281 C 333.867188 287.3125 335.261719 285.359375 336.617188 283.382812 C 337.972656 281.402344 339.289062 279.394531 340.566406 277.363281 C 341.84375 275.332031 343.078125 273.273438 344.273438 271.191406 C 345.464844 269.109375 346.617188 267.007812 347.730469 264.878906 C 348.839844 262.75 349.90625 260.601562 350.933594 258.433594 C 351.957031 256.261719 352.9375 254.074219 353.875 251.863281 C 354.8125 249.65625 355.707031 247.429688 356.554688 245.183594 C 357.40625 242.941406 358.210938 240.679688 358.96875 238.402344 C 359.726562 236.125 360.441406 233.835938 361.109375 231.53125 C 361.777344 229.222656 362.398438 226.90625 362.972656 224.578125 C 363.546875 222.246094 364.078125 219.90625 364.558594 217.554688 C 365.039062 215.207031 365.476562 212.84375 365.863281 210.476562 C 366.25 208.109375 366.59375 205.734375 366.886719 203.351562 C 367.179688 200.96875 367.425781 198.582031 367.625 196.191406 C 367.820312 193.800781 367.972656 191.40625 368.074219 189.007812 C 368.179688 186.609375 368.234375 184.210938 368.242188 181.8125 C 368.25 179.414062 368.207031 177.011719 368.121094 174.613281 C 368.03125 172.21875 367.894531 169.820312 367.710938 167.429688 C 367.527344 165.035156 367.296875 162.648438 367.019531 160.265625 C 366.738281 157.878906 366.414062 155.503906 366.039062 153.132812 C 365.667969 150.761719 365.246094 148.398438 364.777344 146.046875 C 364.308594 143.691406 363.796875 141.347656 363.234375 139.015625 C 362.675781 136.683594 362.066406 134.359375 361.414062 132.050781 C 360.761719 129.742188 360.0625 127.449219 359.316406 125.167969 C 358.570312 122.886719 357.78125 120.621094 356.945312 118.371094 C 356.109375 116.121094 355.230469 113.886719 354.308594 111.671875 C 353.382812 109.457031 352.414062 107.261719 351.402344 105.085938 C 350.390625 102.910156 349.335938 100.753906 348.238281 98.621094 C 347.140625 96.488281 346.003906 94.375 344.820312 92.285156 C 343.640625 90.199219 342.417969 88.132812 341.152344 86.09375 C 339.890625 84.054688 338.585938 82.039062 337.242188 80.050781 C 335.898438 78.0625 334.515625 76.101562 333.09375 74.167969 C 331.667969 72.234375 330.210938 70.332031 328.710938 68.457031 C 327.214844 66.582031 325.679688 64.738281 324.109375 62.925781 C 322.535156 61.109375 320.929688 59.328125 319.285156 57.578125 Z M 319.285156 57.578125 " clip-rule="nonzero"/></clipPath><linearGradient x1="-20.179616" gradientTransform="matrix(1.698197, 0, 0, 1.698197, 6.818186, 0.57096)" y1="30.91074" x2="229.985297" gradientUnits="userSpaceOnUse" y2="193.842334" id="0b27b4579b"><stop stop-opacity="1" stop-color="rgb(100%, 74.119568%, 34.899902%)" offset="0"/><stop stop-opacity="1" stop-color="rgb(100%, 74.119568%, 34.899902%)" offset="0.125"/><stop stop-opacity="1" stop-color="rgb(100%, 74.119568%, 34.899902%)" offset="0.140625"/><stop stop-opacity="1" stop-color="rgb(100%, 73.913574%, 34.733582%)" offset="0.144531"/><stop stop-opacity="1" stop-color="rgb(100%, 73.707581%, 34.567261%)" offset="0.148437"/><stop stop-opacity="1" stop-color="rgb(100%, 73.088074%, 34.068298%)" offset="0.152344"/><stop stop-opacity="1" stop-color="rgb(100%, 72.468567%, 33.570862%)" offset="0.15625"/><stop stop-opacity="1" stop-color="rgb(100%, 71.84906%, 33.071899%)" offset="0.160156"/><stop stop-opacity="1" stop-color="rgb(100%, 71.231079%, 32.572937%)" offset="0.164062"/><stop stop-opacity="1" stop-color="rgb(100%, 70.611572%, 32.073975%)" offset="0.167969"/><stop stop-opacity="1" stop-color="rgb(100%, 69.992065%, 31.576538%)" offset="0.171875"/><stop stop-opacity="1" stop-color="rgb(100%, 69.372559%, 31.077576%)" offset="0.175781"/><stop stop-opacity="1" stop-color="rgb(100%, 68.754578%, 30.578613%)" offset="0.179687"/><stop stop-opacity="1" stop-color="rgb(100%, 68.135071%, 30.079651%)" offset="0.183594"/><stop stop-opacity="1" stop-color="rgb(100%, 67.515564%, 29.582214%)" offset="0.1875"/><stop stop-opacity="1" stop-color="rgb(100%, 66.896057%, 29.083252%)" offset="0.191406"/><stop stop-opacity="1" stop-color="rgb(100%, 66.278076%, 28.585815%)" offset="0.195312"/><stop stop-opacity="1" stop-color="rgb(100%, 65.658569%, 28.086853%)" offset="0.199219"/><stop stop-opacity="1" stop-color="rgb(100%, 65.039062%, 27.587891%)" offset="0.203125"/><stop stop-opacity="1" stop-color="rgb(100%, 64.419556%, 27.088928%)" offset="0.207031"/><stop stop-opacity="1" stop-color="rgb(100%, 63.801575%, 26.591492%)" offset="0.210937"/><stop stop-opacity="1" stop-color="rgb(100%, 63.182068%, 26.092529%)" offset="0.214844"/><stop stop-opacity="1" stop-color="rgb(100%, 62.562561%, 25.593567%)" offset="0.21875"/><stop stop-opacity="1" stop-color="rgb(100%, 61.943054%, 25.094604%)" offset="0.222656"/><stop stop-opacity="1" stop-color="rgb(100%, 61.325073%, 24.597168%)" offset="0.226562"/><stop stop-opacity="1" stop-color="rgb(100%, 60.705566%, 24.098206%)" offset="0.230469"/><stop stop-opacity="1" stop-color="rgb(100%, 60.08606%, 23.599243%)" offset="0.234375"/><stop stop-opacity="1" stop-color="rgb(100%, 59.466553%, 23.100281%)" offset="0.238281"/><stop stop-opacity="1" stop-color="rgb(100%, 58.848572%, 22.602844%)" offset="0.242187"/><stop stop-opacity="1" stop-color="rgb(100%, 58.229065%, 22.103882%)" offset="0.246094"/><stop stop-opacity="1" stop-color="rgb(100%, 57.611084%, 21.604919%)" offset="0.25"/><stop stop-opacity="1" stop-color="rgb(100%, 56.991577%, 21.105957%)" offset="0.253906"/><stop stop-opacity="1" stop-color="rgb(100%, 56.37207%, 20.608521%)" offset="0.257812"/><stop stop-opacity="1" stop-color="rgb(100%, 55.752563%, 20.109558%)" offset="0.261719"/><stop stop-opacity="1" stop-color="rgb(100%, 55.134583%, 19.612122%)" offset="0.265625"/><stop stop-opacity="1" stop-color="rgb(100%, 54.515076%, 19.113159%)" offset="0.269531"/><stop stop-opacity="1" stop-color="rgb(100%, 53.895569%, 18.614197%)" offset="0.273438"/><stop stop-opacity="1" stop-color="rgb(100%, 53.276062%, 18.115234%)" offset="0.277344"/><stop stop-opacity="1" stop-color="rgb(100%, 52.658081%, 17.617798%)" offset="0.28125"/><stop stop-opacity="1" stop-color="rgb(100%, 52.038574%, 17.118835%)" offset="0.285156"/><stop stop-opacity="1" stop-color="rgb(100%, 51.419067%, 16.619873%)" offset="0.289062"/><stop stop-opacity="1" stop-color="rgb(100%, 50.799561%, 16.120911%)" offset="0.292969"/><stop stop-opacity="1" stop-color="rgb(100%, 50.18158%, 15.623474%)" offset="0.296875"/><stop stop-opacity="1" stop-color="rgb(100%, 49.562073%, 15.124512%)" offset="0.300781"/><stop stop-opacity="1" stop-color="rgb(100%, 48.942566%, 14.625549%)" offset="0.304688"/><stop stop-opacity="1" stop-color="rgb(100%, 48.323059%, 14.126587%)" offset="0.308594"/><stop stop-opacity="1" stop-color="rgb(100%, 47.705078%, 13.62915%)" offset="0.3125"/><stop stop-opacity="1" stop-color="rgb(100%, 47.085571%, 13.130188%)" offset="0.316406"/><stop stop-opacity="1" stop-color="rgb(100%, 46.466064%, 12.632751%)" offset="0.320312"/><stop stop-opacity="1" stop-color="rgb(100%, 46.17157%, 12.39624%)" offset="0.324219"/><stop stop-opacity="1" stop-color="rgb(100%, 45.878601%, 12.159729%)" offset="0.328125"/><stop stop-opacity="1" stop-color="rgb(100%, 45.878601%, 12.159729%)" offset="0.34375"/><stop stop-opacity="1" stop-color="rgb(100%, 45.878601%, 12.159729%)" offset="0.375"/><stop stop-opacity="1" stop-color="rgb(100%, 45.878601%, 12.159729%)" offset="0.402631"/><stop stop-opacity="1" stop-color="rgb(100%, 45.878601%, 12.159729%)" offset="0.5"/><stop stop-opacity="1" stop-color="rgb(100%, 45.878601%, 12.159729%)" offset="0.597369"/><stop stop-opacity="1" stop-color="rgb(100%, 45.878601%, 12.159729%)" offset="0.625"/><stop stop-opacity="1" stop-color="rgb(100%, 45.878601%, 12.159729%)" offset="0.6875"/><stop stop-opacity="1" stop-color="rgb(100%, 45.878601%, 12.159729%)" offset="0.71875"/><stop stop-opacity="1" stop-color="rgb(100%, 46.022034%, 12.27417%)" offset="0.734375"/><stop stop-opacity="1" stop-color="rgb(100%, 46.867371%, 12.954712%)" offset="0.738281"/><stop stop-opacity="1" stop-color="rgb(100%, 47.569275%, 13.520813%)" offset="0.742188"/><stop stop-opacity="1" stop-color="rgb(100%, 48.271179%, 14.085388%)" offset="0.746094"/><stop stop-opacity="1" stop-color="rgb(100%, 48.973083%, 14.649963%)" offset="0.75"/><stop stop-opacity="1" stop-color="rgb(100%, 49.673462%, 15.214539%)" offset="0.753906"/><stop stop-opacity="1" stop-color="rgb(100%, 50.375366%, 15.78064%)" offset="0.757812"/><stop stop-opacity="1" stop-color="rgb(100%, 51.077271%, 16.345215%)" offset="0.761719"/><stop stop-opacity="1" stop-color="rgb(100%, 51.779175%, 16.90979%)" offset="0.765625"/><stop stop-opacity="1" stop-color="rgb(100%, 52.481079%, 17.474365%)" offset="0.769531"/><stop stop-opacity="1" stop-color="rgb(100%, 53.182983%, 18.040466%)" offset="0.773437"/><stop stop-opacity="1" stop-color="rgb(100%, 53.883362%, 18.605042%)" offset="0.777344"/><stop stop-opacity="1" stop-color="rgb(100%, 54.585266%, 19.169617%)" offset="0.78125"/><stop stop-opacity="1" stop-color="rgb(100%, 55.28717%, 19.734192%)" offset="0.785156"/><stop stop-opacity="1" stop-color="rgb(100%, 55.989075%, 20.300293%)" offset="0.789063"/><stop stop-opacity="1" stop-color="rgb(100%, 56.690979%, 20.864868%)" offset="0.792969"/><stop stop-opacity="1" stop-color="rgb(100%, 57.392883%, 21.429443%)" offset="0.796875"/><stop stop-opacity="1" stop-color="rgb(100%, 58.093262%, 21.994019%)" offset="0.800781"/><stop stop-opacity="1" stop-color="rgb(100%, 58.795166%, 22.56012%)" offset="0.804688"/><stop stop-opacity="1" stop-color="rgb(100%, 59.49707%, 23.124695%)" offset="0.808594"/><stop stop-opacity="1" stop-color="rgb(100%, 60.198975%, 23.690796%)" offset="0.8125"/><stop stop-opacity="1" stop-color="rgb(100%, 60.900879%, 24.255371%)" offset="0.816406"/><stop stop-opacity="1" stop-color="rgb(100%, 61.602783%, 24.819946%)" offset="0.820312"/><stop stop-opacity="1" stop-color="rgb(100%, 62.303162%, 25.384521%)" offset="0.824219"/><stop stop-opacity="1" stop-color="rgb(100%, 63.005066%, 25.950623%)" offset="0.828125"/><stop stop-opacity="1" stop-color="rgb(100%, 63.70697%, 26.515198%)" offset="0.832031"/><stop stop-opacity="1" stop-color="rgb(100%, 64.408875%, 27.079773%)" offset="0.835938"/><stop stop-opacity="1" stop-color="rgb(100%, 65.110779%, 27.644348%)" offset="0.839844"/><stop stop-opacity="1" stop-color="rgb(100%, 65.812683%, 28.210449%)" offset="0.84375"/><stop stop-opacity="1" stop-color="rgb(100%, 66.513062%, 28.775024%)" offset="0.847656"/><stop stop-opacity="1" stop-color="rgb(100%, 67.214966%, 29.3396%)" offset="0.851563"/><stop stop-opacity="1" stop-color="rgb(100%, 67.91687%, 29.904175%)" offset="0.855469"/><stop stop-opacity="1" stop-color="rgb(100%, 68.618774%, 30.470276%)" offset="0.859375"/><stop stop-opacity="1" stop-color="rgb(100%, 69.320679%, 31.034851%)" offset="0.863281"/><stop stop-opacity="1" stop-color="rgb(100%, 70.022583%, 31.600952%)" offset="0.867188"/><stop stop-opacity="1" stop-color="rgb(100%, 70.724487%, 32.165527%)" offset="0.871094"/><stop stop-opacity="1" stop-color="rgb(100%, 71.426392%, 32.730103%)" offset="0.875"/><stop stop-opacity="1" stop-color="rgb(100%, 72.12677%, 33.294678%)" offset="0.878906"/><stop stop-opacity="1" stop-color="rgb(100%, 72.828674%, 33.860779%)" offset="0.882812"/><stop stop-opacity="1" stop-color="rgb(100%, 73.474121%, 34.379578%)" offset="0.886719"/><stop stop-opacity="1" stop-color="rgb(100%, 74.119568%, 34.899902%)" offset="0.890625"/><stop stop-opacity="1" stop-color="rgb(100%, 74.119568%, 34.899902%)" offset="0.90625"/><stop stop-opacity="1" stop-color="rgb(100%, 74.119568%, 34.899902%)" offset="0.9375"/><stop stop-opacity="1" stop-color="rgb(100%, 74.119568%, 34.899902%)" offset="1"/></linearGradient></defs><g clip-path="url(#e83d77f542)"><g clip-path="url(#5daf352aec)"><path fill="url(#0b27b4579b)" d="M 6.816406 0.445312 L 6.816406 374.480469 L 368.25 374.480469 L 368.25 0.445312 Z M 6.816406 0.445312 " fill-rule="nonzero"/></g></g></svg>