<svg xmlns="http://www.w3.org/2000/svg" xmlns:xlink="http://www.w3.org/1999/xlink" width="500" zoomAndPan="magnify" viewBox="0 0 375 374.999991" height="500" preserveAspectRatio="xMidYMid meet" version="1.0"><defs><g/><clipPath id="3a3d693298"><path d="M 50.226562 5.007812 L 324.726562 5.007812 L 324.726562 290 L 50.226562 290 Z M 50.226562 5.007812 " clip-rule="nonzero"/></clipPath><clipPath id="5081cb205c"><path d="M 104.015625 183.21875 C 104.015625 183.21875 149.910156 83.574219 216.535156 8.523438 C 214.421875 8.058594 212.296875 7.648438 210.164062 7.289062 C 208.03125 6.925781 205.886719 6.613281 203.738281 6.355469 C 201.589844 6.09375 199.4375 5.886719 197.277344 5.726562 C 195.121094 5.570312 192.960938 5.460938 190.796875 5.40625 C 188.632812 5.347656 186.46875 5.34375 184.304688 5.390625 C 182.140625 5.4375 179.980469 5.535156 177.820312 5.683594 C 175.660156 5.832031 173.507812 6.03125 171.355469 6.28125 C 169.207031 6.53125 167.0625 6.832031 164.929688 7.183594 C 162.792969 7.535156 160.667969 7.9375 158.550781 8.390625 C 156.433594 8.839844 154.328125 9.34375 152.238281 9.894531 C 150.144531 10.445312 148.066406 11.046875 146 11.699219 C 143.9375 12.347656 141.886719 13.046875 139.855469 13.792969 C 137.824219 14.539062 135.8125 15.335938 133.820312 16.175781 C 131.824219 17.019531 129.851562 17.90625 127.902344 18.84375 C 125.949219 19.777344 124.019531 20.757812 122.117188 21.785156 C 120.210938 22.8125 118.328125 23.882812 116.476562 25 C 114.621094 26.113281 112.792969 27.273438 110.992188 28.476562 C 109.195312 29.675781 107.421875 30.921875 105.683594 32.207031 C 103.941406 33.492188 102.230469 34.816406 100.550781 36.183594 C 98.875 37.550781 97.230469 38.957031 95.617188 40.402344 C 94.003906 41.84375 92.429688 43.328125 90.886719 44.847656 C 89.34375 46.363281 87.839844 47.917969 86.371094 49.507812 C 84.902344 51.097656 83.472656 52.722656 82.082031 54.378906 C 80.691406 56.039062 79.339844 57.726562 78.027344 59.449219 C 76.714844 61.171875 75.445312 62.921875 74.214844 64.703125 C 72.988281 66.488281 71.800781 68.296875 70.660156 70.132812 C 69.515625 71.972656 68.414062 73.835938 67.359375 75.726562 C 66.304688 77.613281 65.296875 79.527344 64.332031 81.464844 C 63.367188 83.402344 62.449219 85.363281 61.578125 87.34375 C 60.703125 89.324219 59.878906 91.324219 59.101562 93.34375 C 58.324219 95.363281 57.597656 97.402344 56.914062 99.457031 C 56.234375 101.511719 55.601562 103.578125 55.019531 105.664062 C 54.4375 107.75 53.902344 109.84375 53.417969 111.957031 C 52.933594 114.066406 52.5 116.183594 52.117188 118.3125 C 51.734375 120.445312 51.402344 122.582031 51.117188 124.726562 C 50.835938 126.875 50.605469 129.023438 50.421875 131.183594 C 50.242188 133.339844 50.113281 135.5 50.035156 137.660156 C 49.957031 139.824219 49.929688 141.988281 49.953125 144.152344 C 49.976562 146.316406 50.050781 148.480469 50.175781 150.640625 C 50.300781 152.800781 50.480469 154.957031 50.707031 157.109375 C 50.933594 159.261719 51.214844 161.40625 51.542969 163.546875 C 51.871094 165.683594 52.25 167.816406 52.683594 169.9375 C 53.113281 172.058594 53.59375 174.167969 54.121094 176.265625 C 54.652344 178.363281 55.230469 180.449219 55.859375 182.519531 C 56.488281 184.589844 57.164062 186.644531 57.890625 188.683594 C 58.617188 190.722656 59.390625 192.746094 60.210938 194.746094 C 61.03125 196.75 61.898438 198.730469 62.816406 200.691406 C 63.730469 202.65625 64.691406 204.59375 65.699219 206.507812 C 66.703125 208.425781 67.753906 210.316406 68.851562 212.183594 C 69.949219 214.046875 71.085938 215.886719 72.269531 217.699219 C 73.453125 219.511719 74.679688 221.296875 75.945312 223.050781 C 77.214844 224.804688 78.523438 226.527344 79.871094 228.21875 C 81.21875 229.914062 82.609375 231.574219 84.035156 233.199219 C 85.460938 234.828125 86.929688 236.417969 88.429688 237.976562 C 89.933594 239.535156 91.472656 241.054688 93.046875 242.539062 C 94.621094 244.023438 96.230469 245.472656 97.875 246.878906 C 99.515625 248.289062 101.191406 249.660156 102.898438 250.988281 C 104.605469 252.316406 106.34375 253.605469 108.113281 254.851562 C 109.882812 256.101562 111.679688 257.304688 113.507812 258.46875 C 115.332031 259.628906 117.183594 260.75 119.0625 261.824219 C 120.941406 262.898438 122.84375 263.925781 124.773438 264.910156 C 126.699219 265.898438 128.648438 266.835938 130.621094 267.726562 C 132.59375 268.621094 134.582031 269.464844 136.59375 270.265625 C 138.605469 271.0625 140.636719 271.8125 142.683594 272.515625 L 140.398438 289.160156 L 143.058594 289.519531 L 150.0625 271.703125 C 161.121094 244.476562 179.738281 202.507812 200.058594 172.664062 C 200.058594 172.625 145.613281 171.117188 104.015625 183.21875 Z M 287.628906 48.75 C 260.09375 68.246094 226.070312 97.78125 198.601562 138.601562 C 198.601562 138.601562 273.433594 128.769531 303.714844 127.261719 C 303.714844 127.261719 217.941406 201.140625 156.914062 276.554688 C 160.472656 277.367188 164.054688 278.039062 167.664062 278.566406 C 171.273438 279.09375 174.898438 279.476562 178.539062 279.714844 C 182.179688 279.953125 185.824219 280.046875 189.46875 279.996094 C 193.117188 279.945312 196.757812 279.75 200.390625 279.40625 C 204.023438 279.066406 207.632812 278.578125 211.226562 277.949219 C 214.820312 277.320312 218.382812 276.546875 221.914062 275.632812 C 225.445312 274.722656 228.9375 273.667969 232.382812 272.476562 C 235.832031 271.285156 239.226562 269.957031 242.570312 268.496094 C 245.910156 267.03125 249.191406 265.4375 252.40625 263.714844 C 255.621094 261.992188 258.761719 260.140625 261.828125 258.167969 C 264.898438 256.195312 267.882812 254.101562 270.78125 251.886719 C 273.683594 249.675781 276.492188 247.351562 279.207031 244.917969 C 281.921875 242.480469 284.535156 239.941406 287.050781 237.296875 C 289.5625 234.652344 291.964844 231.910156 294.261719 229.074219 C 296.554688 226.238281 298.734375 223.316406 300.796875 220.308594 C 302.855469 217.296875 304.796875 214.210938 306.609375 211.046875 C 308.425781 207.882812 310.113281 204.652344 311.671875 201.351562 C 313.230469 198.054688 314.652344 194.699219 315.945312 191.285156 C 317.234375 187.875 318.386719 184.417969 319.402344 180.910156 C 320.417969 177.40625 321.289062 173.871094 322.023438 170.296875 C 322.757812 166.722656 323.347656 163.125 323.792969 159.503906 C 324.238281 155.882812 324.539062 152.25 324.695312 148.605469 C 324.851562 144.960938 324.863281 141.316406 324.730469 137.671875 C 324.59375 134.023438 324.316406 130.390625 323.890625 126.765625 C 323.46875 123.144531 322.902344 119.542969 322.191406 115.964844 C 321.480469 112.386719 320.628906 108.84375 319.632812 105.332031 C 318.640625 101.824219 317.507812 98.359375 316.238281 94.9375 C 314.96875 91.519531 313.566406 88.152344 312.027344 84.84375 C 310.492188 81.539062 308.824219 78.296875 307.027344 75.121094 C 305.230469 71.945312 303.3125 68.847656 301.269531 65.824219 C 299.226562 62.800781 297.066406 59.867188 294.789062 57.015625 C 292.511719 54.167969 290.125 51.410156 287.628906 48.75 Z M 287.628906 48.75 " clip-rule="nonzero"/></clipPath><linearGradient x1="-20.179609" gradientTransform="matrix(1.290225, 0, 0, 1.290225, 50.226237, 5.4386)" y1="30.910745" x2="229.930519" gradientUnits="userSpaceOnUse" y2="193.806657" id="3b8fc41a97"><stop stop-opacity="1" stop-color="rgb(100%, 74.119568%, 34.899902%)" offset="0"/><stop stop-opacity="1" stop-color="rgb(100%, 74.119568%, 34.899902%)" offset="0.125"/><stop stop-opacity="1" stop-color="rgb(100%, 74.119568%, 34.899902%)" offset="0.140625"/><stop stop-opacity="1" stop-color="rgb(100%, 73.9151%, 34.735107%)" offset="0.144531"/><stop stop-opacity="1" stop-color="rgb(100%, 73.712158%, 34.571838%)" offset="0.148438"/><stop stop-opacity="1" stop-color="rgb(100%, 73.092651%, 34.072876%)" offset="0.152344"/><stop stop-opacity="1" stop-color="rgb(100%, 72.47467%, 33.575439%)" offset="0.15625"/><stop stop-opacity="1" stop-color="rgb(100%, 71.855164%, 33.076477%)" offset="0.160156"/><stop stop-opacity="1" stop-color="rgb(100%, 71.237183%, 32.577515%)" offset="0.164062"/><stop stop-opacity="1" stop-color="rgb(100%, 70.617676%, 32.078552%)" offset="0.167969"/><stop stop-opacity="1" stop-color="rgb(100%, 69.998169%, 31.581116%)" offset="0.171875"/><stop stop-opacity="1" stop-color="rgb(100%, 69.378662%, 31.082153%)" offset="0.175781"/><stop stop-opacity="1" stop-color="rgb(100%, 68.760681%, 30.584717%)" offset="0.179688"/><stop stop-opacity="1" stop-color="rgb(100%, 68.141174%, 30.085754%)" offset="0.183594"/><stop stop-opacity="1" stop-color="rgb(100%, 67.523193%, 29.586792%)" offset="0.1875"/><stop stop-opacity="1" stop-color="rgb(100%, 66.903687%, 29.08783%)" offset="0.191406"/><stop stop-opacity="1" stop-color="rgb(100%, 66.28418%, 28.590393%)" offset="0.195313"/><stop stop-opacity="1" stop-color="rgb(100%, 65.664673%, 28.091431%)" offset="0.199219"/><stop stop-opacity="1" stop-color="rgb(100%, 65.046692%, 27.593994%)" offset="0.203125"/><stop stop-opacity="1" stop-color="rgb(100%, 64.427185%, 27.095032%)" offset="0.207031"/><stop stop-opacity="1" stop-color="rgb(100%, 63.809204%, 26.597595%)" offset="0.210938"/><stop stop-opacity="1" stop-color="rgb(100%, 63.189697%, 26.098633%)" offset="0.214844"/><stop stop-opacity="1" stop-color="rgb(100%, 62.57019%, 25.59967%)" offset="0.21875"/><stop stop-opacity="1" stop-color="rgb(100%, 61.950684%, 25.100708%)" offset="0.222656"/><stop stop-opacity="1" stop-color="rgb(100%, 61.332703%, 24.603271%)" offset="0.226563"/><stop stop-opacity="1" stop-color="rgb(100%, 60.713196%, 24.104309%)" offset="0.230469"/><stop stop-opacity="1" stop-color="rgb(100%, 60.095215%, 23.606873%)" offset="0.234375"/><stop stop-opacity="1" stop-color="rgb(100%, 59.475708%, 23.10791%)" offset="0.238281"/><stop stop-opacity="1" stop-color="rgb(100%, 58.857727%, 22.608948%)" offset="0.242188"/><stop stop-opacity="1" stop-color="rgb(100%, 58.23822%, 22.109985%)" offset="0.246094"/><stop stop-opacity="1" stop-color="rgb(100%, 57.618713%, 21.612549%)" offset="0.25"/><stop stop-opacity="1" stop-color="rgb(100%, 56.999207%, 21.113586%)" offset="0.253906"/><stop stop-opacity="1" stop-color="rgb(100%, 56.381226%, 20.61615%)" offset="0.257813"/><stop stop-opacity="1" stop-color="rgb(100%, 55.761719%, 20.117188%)" offset="0.261719"/><stop stop-opacity="1" stop-color="rgb(100%, 55.143738%, 19.618225%)" offset="0.265625"/><stop stop-opacity="1" stop-color="rgb(100%, 54.524231%, 19.119263%)" offset="0.269531"/><stop stop-opacity="1" stop-color="rgb(100%, 53.904724%, 18.621826%)" offset="0.273438"/><stop stop-opacity="1" stop-color="rgb(100%, 53.285217%, 18.122864%)" offset="0.277344"/><stop stop-opacity="1" stop-color="rgb(100%, 52.667236%, 17.625427%)" offset="0.28125"/><stop stop-opacity="1" stop-color="rgb(100%, 52.047729%, 17.126465%)" offset="0.285156"/><stop stop-opacity="1" stop-color="rgb(100%, 51.429749%, 16.629028%)" offset="0.289063"/><stop stop-opacity="1" stop-color="rgb(100%, 50.810242%, 16.130066%)" offset="0.292969"/><stop stop-opacity="1" stop-color="rgb(100%, 50.190735%, 15.631104%)" offset="0.296875"/><stop stop-opacity="1" stop-color="rgb(100%, 49.571228%, 15.132141%)" offset="0.300781"/><stop stop-opacity="1" stop-color="rgb(100%, 48.953247%, 14.634705%)" offset="0.304688"/><stop stop-opacity="1" stop-color="rgb(100%, 48.33374%, 14.135742%)" offset="0.308594"/><stop stop-opacity="1" stop-color="rgb(100%, 47.715759%, 13.638306%)" offset="0.3125"/><stop stop-opacity="1" stop-color="rgb(100%, 47.096252%, 13.139343%)" offset="0.316406"/><stop stop-opacity="1" stop-color="rgb(100%, 46.476746%, 12.640381%)" offset="0.320313"/><stop stop-opacity="1" stop-color="rgb(100%, 46.177673%, 12.399292%)" offset="0.324219"/><stop stop-opacity="1" stop-color="rgb(100%, 45.878601%, 12.159729%)" offset="0.328125"/><stop stop-opacity="1" stop-color="rgb(100%, 45.878601%, 12.159729%)" offset="0.34375"/><stop stop-opacity="1" stop-color="rgb(100%, 45.878601%, 12.159729%)" offset="0.375"/><stop stop-opacity="1" stop-color="rgb(100%, 45.878601%, 12.159729%)" offset="0.402719"/><stop stop-opacity="1" stop-color="rgb(100%, 45.878601%, 12.159729%)" offset="0.5"/><stop stop-opacity="1" stop-color="rgb(100%, 45.878601%, 12.159729%)" offset="0.597281"/><stop stop-opacity="1" stop-color="rgb(100%, 45.878601%, 12.159729%)" offset="0.625"/><stop stop-opacity="1" stop-color="rgb(100%, 45.878601%, 12.159729%)" offset="0.6875"/><stop stop-opacity="1" stop-color="rgb(100%, 45.878601%, 12.159729%)" offset="0.71875"/><stop stop-opacity="1" stop-color="rgb(100%, 46.006775%, 12.263489%)" offset="0.734375"/><stop stop-opacity="1" stop-color="rgb(100%, 46.838379%, 12.931824%)" offset="0.738281"/><stop stop-opacity="1" stop-color="rgb(100%, 47.540283%, 13.496399%)" offset="0.742188"/><stop stop-opacity="1" stop-color="rgb(100%, 48.240662%, 14.060974%)" offset="0.746094"/><stop stop-opacity="1" stop-color="rgb(100%, 48.942566%, 14.627075%)" offset="0.75"/><stop stop-opacity="1" stop-color="rgb(100%, 49.64447%, 15.19165%)" offset="0.753906"/><stop stop-opacity="1" stop-color="rgb(100%, 50.346375%, 15.756226%)" offset="0.757812"/><stop stop-opacity="1" stop-color="rgb(100%, 51.046753%, 16.320801%)" offset="0.761719"/><stop stop-opacity="1" stop-color="rgb(100%, 51.748657%, 16.885376%)" offset="0.765625"/><stop stop-opacity="1" stop-color="rgb(100%, 52.450562%, 17.449951%)" offset="0.769531"/><stop stop-opacity="1" stop-color="rgb(100%, 53.152466%, 18.016052%)" offset="0.773438"/><stop stop-opacity="1" stop-color="rgb(100%, 53.852844%, 18.580627%)" offset="0.777344"/><stop stop-opacity="1" stop-color="rgb(100%, 54.554749%, 19.145203%)" offset="0.78125"/><stop stop-opacity="1" stop-color="rgb(100%, 55.256653%, 19.709778%)" offset="0.785156"/><stop stop-opacity="1" stop-color="rgb(100%, 55.958557%, 20.275879%)" offset="0.789062"/><stop stop-opacity="1" stop-color="rgb(100%, 56.658936%, 20.840454%)" offset="0.792969"/><stop stop-opacity="1" stop-color="rgb(100%, 57.36084%, 21.405029%)" offset="0.796875"/><stop stop-opacity="1" stop-color="rgb(100%, 58.062744%, 21.969604%)" offset="0.800781"/><stop stop-opacity="1" stop-color="rgb(100%, 58.764648%, 22.53418%)" offset="0.804688"/><stop stop-opacity="1" stop-color="rgb(100%, 59.465027%, 23.098755%)" offset="0.808594"/><stop stop-opacity="1" stop-color="rgb(100%, 60.166931%, 23.664856%)" offset="0.8125"/><stop stop-opacity="1" stop-color="rgb(100%, 60.868835%, 24.229431%)" offset="0.816406"/><stop stop-opacity="1" stop-color="rgb(100%, 61.57074%, 24.794006%)" offset="0.820312"/><stop stop-opacity="1" stop-color="rgb(100%, 62.271118%, 25.358582%)" offset="0.824219"/><stop stop-opacity="1" stop-color="rgb(100%, 62.973022%, 25.924683%)" offset="0.828125"/><stop stop-opacity="1" stop-color="rgb(100%, 63.674927%, 26.489258%)" offset="0.832031"/><stop stop-opacity="1" stop-color="rgb(100%, 64.376831%, 27.053833%)" offset="0.835938"/><stop stop-opacity="1" stop-color="rgb(100%, 65.077209%, 27.618408%)" offset="0.839844"/><stop stop-opacity="1" stop-color="rgb(100%, 65.779114%, 28.182983%)" offset="0.84375"/><stop stop-opacity="1" stop-color="rgb(100%, 66.481018%, 28.747559%)" offset="0.847656"/><stop stop-opacity="1" stop-color="rgb(100%, 67.182922%, 29.31366%)" offset="0.851562"/><stop stop-opacity="1" stop-color="rgb(100%, 67.883301%, 29.878235%)" offset="0.855469"/><stop stop-opacity="1" stop-color="rgb(100%, 68.585205%, 30.44281%)" offset="0.859375"/><stop stop-opacity="1" stop-color="rgb(100%, 69.287109%, 31.007385%)" offset="0.863281"/><stop stop-opacity="1" stop-color="rgb(100%, 69.989014%, 31.573486%)" offset="0.867188"/><stop stop-opacity="1" stop-color="rgb(100%, 70.689392%, 32.138062%)" offset="0.871094"/><stop stop-opacity="1" stop-color="rgb(100%, 71.391296%, 32.702637%)" offset="0.875"/><stop stop-opacity="1" stop-color="rgb(100%, 72.091675%, 33.267212%)" offset="0.878906"/><stop stop-opacity="1" stop-color="rgb(100%, 72.793579%, 33.831787%)" offset="0.882812"/><stop stop-opacity="1" stop-color="rgb(100%, 73.455811%, 34.365845%)" offset="0.886719"/><stop stop-opacity="1" stop-color="rgb(100%, 74.119568%, 34.899902%)" offset="0.890625"/><stop stop-opacity="1" stop-color="rgb(100%, 74.119568%, 34.899902%)" offset="0.90625"/><stop stop-opacity="1" stop-color="rgb(100%, 74.119568%, 34.899902%)" offset="0.9375"/><stop stop-opacity="1" stop-color="rgb(100%, 74.119568%, 34.899902%)" offset="1"/></linearGradient></defs><g clip-path="url(#3a3d693298)"><g clip-path="url(#5081cb205c)"><path fill="url(#3b8fc41a97)" d="M 50.226562 5.34375 L 50.226562 289.519531 L 324.726562 289.519531 L 324.726562 5.34375 Z M 50.226562 5.34375 " fill-rule="nonzero"/></g></g><g fill="#293041" fill-opacity="1"><g transform="translate(66.89586, 356.249977)"><g><path d="M 4.28125 -13.71875 C 4.988281 -13.15625 6.210938 -12.382812 7.953125 -11.40625 C 9.703125 -10.4375 11.375 -9.953125 12.96875 -9.953125 C 14.5625 -9.953125 15.359375 -10.570312 15.359375 -11.8125 C 15.359375 -12.375 15.128906 -12.867188 14.671875 -13.296875 C 14.222656 -13.734375 13.398438 -14.234375 12.203125 -14.796875 C 11.003906 -15.359375 10.101562 -15.796875 9.5 -16.109375 C 8.90625 -16.429688 8.109375 -16.957031 7.109375 -17.6875 C 6.117188 -18.414062 5.363281 -19.175781 4.84375 -19.96875 C 3.34375 -22.101562 2.59375 -24.820312 2.59375 -28.125 C 2.59375 -31.425781 3.816406 -34.207031 6.265625 -36.46875 C 8.722656 -38.738281 11.941406 -39.875 15.921875 -39.875 C 18.617188 -39.875 21.109375 -39.582031 23.390625 -39 C 25.679688 -38.425781 26.863281 -37.671875 26.9375 -36.734375 C 26.9375 -36.617188 26.9375 -36.503906 26.9375 -36.390625 C 26.9375 -35.078125 26.523438 -33.414062 25.703125 -31.40625 C 24.878906 -29.40625 24.300781 -28.289062 23.96875 -28.0625 C 21.5625 -29.300781 19.410156 -29.921875 17.515625 -29.921875 C 15.628906 -29.921875 14.6875 -29.25 14.6875 -27.90625 C 14.6875 -27.070312 15.378906 -26.335938 16.765625 -25.703125 C 17.066406 -25.554688 17.5 -25.347656 18.0625 -25.078125 C 18.625 -24.816406 19.269531 -24.507812 20 -24.15625 C 20.726562 -23.800781 21.515625 -23.351562 22.359375 -22.8125 C 23.203125 -22.269531 24.113281 -21.546875 25.09375 -20.640625 C 27.070312 -18.765625 28.0625 -16.289062 28.0625 -13.21875 C 28.0625 -9.207031 26.957031 -5.925781 24.75 -3.375 C 22.539062 -0.820312 19.128906 0.488281 14.515625 0.5625 C 12.265625 0.5625 10.226562 0.375 8.40625 0 C 6.59375 -0.375 5.007812 -1.101562 3.65625 -2.1875 C 2.300781 -3.28125 1.625 -4.59375 1.625 -6.125 C 1.625 -7.664062 1.90625 -9.195312 2.46875 -10.71875 C 3.03125 -12.238281 3.632812 -13.238281 4.28125 -13.71875 Z M 4.28125 -13.71875 "/></g></g></g><g fill="#293041" fill-opacity="1"><g transform="translate(96.758358, 356.249977)"><g><path d="M 4.984375 -3.3125 C 2.640625 -5.90625 1.46875 -9.488281 1.46875 -14.0625 C 1.46875 -18.632812 2.640625 -22.210938 4.984375 -24.796875 C 7.328125 -27.390625 10.484375 -28.6875 14.453125 -28.6875 C 18.429688 -28.6875 21.582031 -27.390625 23.90625 -24.796875 C 26.226562 -22.210938 27.390625 -18.632812 27.390625 -14.0625 C 27.390625 -9.488281 26.226562 -5.90625 23.90625 -3.3125 C 21.582031 -0.726562 18.429688 0.5625 14.453125 0.5625 C 10.484375 0.5625 7.328125 -0.726562 4.984375 -3.3125 Z M 14.484375 -19.296875 C 12.367188 -19.296875 11.3125 -17.566406 11.3125 -14.109375 C 11.3125 -10.660156 12.367188 -8.9375 14.484375 -8.9375 C 16.597656 -8.9375 17.65625 -10.660156 17.65625 -14.109375 C 17.65625 -17.566406 16.597656 -19.296875 14.484375 -19.296875 Z M 14.484375 -19.296875 "/></g></g></g><g fill="#293041" fill-opacity="1"><g transform="translate(125.608567, 356.249977)"><g><path d="M 12.765625 -0.453125 C 12.765625 -0.109375 10.851562 0.0625 7.03125 0.0625 C 4.03125 0.0195312 2.53125 -0.128906 2.53125 -0.390625 L 2.53125 -38.703125 C 2.53125 -39.265625 4.347656 -39.546875 7.984375 -39.546875 C 11.171875 -39.429688 12.765625 -39.242188 12.765625 -38.984375 Z M 12.765625 -0.453125 "/></g></g></g><g fill="#293041" fill-opacity="1"><g transform="translate(140.905369, 356.249977)"><g><path d="M 6.078125 -20.421875 C 5.023438 -22.296875 4.5 -23.820312 4.5 -25 C 4.5 -26.1875 4.816406 -26.945312 5.453125 -27.28125 C 7.585938 -28.21875 10.519531 -28.6875 14.25 -28.6875 C 17.988281 -28.6875 20.625 -27.8125 22.15625 -26.0625 C 23.695312 -24.320312 24.46875 -21.75 24.46875 -18.34375 L 24.46875 -9.453125 L 26.375 -9.453125 C 27.019531 -9.453125 27.519531 -9.078125 27.875 -8.328125 C 28.226562 -7.578125 28.40625 -6.546875 28.40625 -5.234375 C 28.40625 -3.921875 28.078125 -2.625 27.421875 -1.34375 C 26.765625 -0.0703125 25.875 0.5625 24.75 0.5625 C 22.726562 0.5625 21.097656 0.0195312 19.859375 -1.0625 C 19.296875 -1.519531 18.863281 -2.066406 18.5625 -2.703125 C 16.832031 -0.523438 14.148438 0.5625 10.515625 0.5625 C 7.773438 0.5625 5.46875 -0.410156 3.59375 -2.359375 C 1.71875 -4.304688 0.78125 -6.613281 0.78125 -9.28125 C 0.78125 -15.394531 4.4375 -18.453125 11.75 -18.453125 L 14.84375 -18.453125 L 14.84375 -19.015625 C 14.84375 -19.984375 14.679688 -20.609375 14.359375 -20.890625 C 14.046875 -21.171875 13.3125 -21.3125 12.15625 -21.3125 C 10.726562 -21.3125 8.703125 -21.015625 6.078125 -20.421875 Z M 10.578125 -10.0625 C 10.578125 -9.238281 10.800781 -8.609375 11.25 -8.171875 C 11.695312 -7.742188 12.265625 -7.53125 12.953125 -7.53125 C 13.648438 -7.53125 14.28125 -7.8125 14.84375 -8.375 L 14.84375 -12.71875 L 13.28125 -12.71875 C 11.476562 -12.71875 10.578125 -11.832031 10.578125 -10.0625 Z M 10.578125 -10.0625 "/></g></g></g><g fill="#293041" fill-opacity="1"><g transform="translate(169.980536, 356.249977)"><g><path d="M 14.84375 -0.0625 C 14.84375 0.207031 13.140625 0.34375 9.734375 0.34375 C 6.316406 0.257812 4.609375 0.109375 4.609375 -0.109375 L 4.609375 -18.78125 L 3.09375 -18.78125 C 2.488281 -18.78125 2.007812 -19.144531 1.65625 -19.875 C 1.300781 -20.613281 1.125 -21.523438 1.125 -22.609375 C 1.125 -26.660156 2.320312 -28.6875 4.71875 -28.6875 C 6.40625 -28.6875 7.8125 -28.171875 8.9375 -27.140625 C 10.0625 -26.109375 10.625 -24.9375 10.625 -23.625 C 11.414062 -25.164062 12.476562 -26.394531 13.8125 -27.3125 C 15.144531 -28.226562 16.503906 -28.6875 17.890625 -28.6875 C 20.066406 -28.6875 21.378906 -28.125 21.828125 -27 C 21.941406 -26.695312 22 -26.253906 22 -25.671875 C 22 -25.097656 21.816406 -24.0625 21.453125 -22.5625 C 21.097656 -21.0625 20.734375 -19.972656 20.359375 -19.296875 C 19.984375 -18.617188 19.757812 -18.28125 19.6875 -18.28125 C 19.613281 -18.28125 19.265625 -18.421875 18.640625 -18.703125 C 18.023438 -18.984375 17.472656 -19.125 16.984375 -19.125 C 15.554688 -19.125 14.84375 -18 14.84375 -15.75 Z M 14.84375 -0.0625 "/></g></g></g><g fill="#293041" fill-opacity="1"><g transform="translate(192.250874, 356.249977)"><g><path d="M 21.09375 -23.734375 C 21.800781 -23.734375 22.15625 -22.421875 22.15625 -19.796875 C 22.15625 -19.015625 22.070312 -18.085938 21.90625 -17.015625 C 21.738281 -15.941406 21.429688 -15.40625 20.984375 -15.40625 L 13.84375 -15.40625 L 13.84375 -9.78125 L 24.1875 -9.78125 C 24.820312 -9.78125 25.253906 -8.957031 25.484375 -7.3125 C 25.597656 -6.601562 25.65625 -5.84375 25.65625 -5.03125 C 25.65625 -4.226562 25.539062 -3.1875 25.3125 -1.90625 C 25.082031 -0.632812 24.707031 0 24.1875 0 L 4.953125 0 C 3.523438 0 2.8125 -0.582031 2.8125 -1.75 L 2.8125 -37.90625 C 2.8125 -38.882812 3.242188 -39.375 4.109375 -39.375 L 24.25 -39.375 C 25.03125 -39.375 25.421875 -37.710938 25.421875 -34.390625 C 25.421875 -31.078125 25.03125 -29.421875 24.25 -29.421875 L 13.84375 -29.421875 L 13.84375 -23.734375 Z M 21.09375 -23.734375 "/></g></g></g><g fill="#293041" fill-opacity="1"><g transform="translate(219.976325, 356.249977)"><g><path d="M 16.765625 -39.03125 C 16.765625 -39.59375 18.242188 -39.875 21.203125 -39.875 C 22.210938 -39.875 23.382812 -39.804688 24.71875 -39.671875 C 26.050781 -39.546875 26.71875 -39.375 26.71875 -39.15625 L 26.71875 -9.5 L 28.6875 -9.5 C 29.625 -9.5 30.242188 -8.65625 30.546875 -6.96875 C 30.617188 -6.488281 30.65625 -5.828125 30.65625 -4.984375 C 30.65625 -4.140625 30.394531 -3.113281 29.875 -1.90625 C 29.125 -0.257812 27.921875 0.5625 26.265625 0.5625 C 25.023438 0.5625 23.925781 0.316406 22.96875 -0.171875 C 22.019531 -0.660156 21.375 -1.164062 21.03125 -1.6875 L 20.53125 -2.421875 C 18.46875 -0.429688 15.878906 0.5625 12.765625 0.5625 C 9.648438 0.5625 6.988281 -0.726562 4.78125 -3.3125 C 2.570312 -5.90625 1.46875 -9.515625 1.46875 -14.140625 C 1.46875 -18.773438 2.628906 -22.359375 4.953125 -24.890625 C 7.273438 -27.421875 10.179688 -28.6875 13.671875 -28.6875 C 14.679688 -28.6875 15.710938 -28.570312 16.765625 -28.34375 Z M 14.90625 -19.6875 C 12.800781 -19.6875 11.75 -17.789062 11.75 -14 C 11.75 -12.09375 12.050781 -10.71875 12.65625 -9.875 C 13.257812 -9.03125 13.925781 -8.609375 14.65625 -8.609375 C 15.382812 -8.609375 16.085938 -8.925781 16.765625 -9.5625 L 16.765625 -19.125 C 16.128906 -19.5 15.507812 -19.6875 14.90625 -19.6875 Z M 14.90625 -19.6875 "/></g></g></g><g fill="#293041" fill-opacity="1"><g transform="translate(251.750924, 356.249977)"><g><path d="M 12.875 0 C 9.238281 0 6.425781 -1.171875 4.4375 -3.515625 C 2.457031 -5.859375 1.46875 -9.328125 1.46875 -13.921875 C 1.46875 -18.515625 2.769531 -22.113281 5.375 -24.71875 C 7.976562 -27.320312 11.445312 -28.625 15.78125 -28.625 C 20.113281 -28.625 23.6875 -27.671875 26.5 -25.765625 L 26.5 2.25 C 26.5 5.019531 25.375 7.144531 23.125 8.625 C 20.875 10.113281 17.984375 10.859375 14.453125 10.859375 C 10.929688 10.859375 7.78125 10.40625 5 9.5 C 4.625 8.601562 4.4375 7.800781 4.4375 7.09375 C 4.4375 4.6875 4.832031 2.921875 5.625 1.796875 C 8.132812 2.890625 10.816406 3.4375 13.671875 3.4375 C 15.734375 3.4375 16.765625 2.703125 16.765625 1.234375 L 16.765625 -0.453125 C 15.148438 -0.148438 13.851562 0 12.875 0 Z M 15.46875 -19.46875 C 12.957031 -19.46875 11.703125 -17.570312 11.703125 -13.78125 C 11.703125 -11.414062 12.1875 -9.878906 13.15625 -9.171875 C 13.800781 -8.679688 14.441406 -8.4375 15.078125 -8.4375 C 15.710938 -8.4375 16.273438 -8.492188 16.765625 -8.609375 L 16.765625 -19.296875 C 16.316406 -19.410156 15.882812 -19.46875 15.46875 -19.46875 Z M 15.46875 -19.46875 "/></g></g></g><g fill="#293041" fill-opacity="1"><g transform="translate(280.769855, 356.249977)"><g><path d="M 23.796875 -1.515625 C 21.429688 -0.128906 18.390625 0.5625 14.671875 0.5625 C 10.960938 0.5625 7.832031 -0.703125 5.28125 -3.234375 C 2.738281 -5.765625 1.46875 -9.269531 1.46875 -13.75 C 1.46875 -18.226562 2.691406 -21.835938 5.140625 -24.578125 C 7.597656 -27.316406 10.703125 -28.6875 14.453125 -28.6875 C 18.203125 -28.6875 21.097656 -27.726562 23.140625 -25.8125 C 25.191406 -23.90625 26.21875 -21.582031 26.21875 -18.84375 C 26.21875 -12.769531 22.726562 -9.734375 15.75 -9.734375 L 11.875 -9.734375 C 11.875 -8.609375 12.179688 -7.828125 12.796875 -7.390625 C 13.410156 -6.960938 14.320312 -6.75 15.53125 -6.75 C 18.15625 -6.75 20.644531 -7.347656 23 -8.546875 C 23.039062 -8.585938 23.210938 -8.328125 23.515625 -7.765625 C 24.410156 -6.148438 24.859375 -4.789062 24.859375 -3.6875 C 24.859375 -2.582031 24.503906 -1.859375 23.796875 -1.515625 Z M 16.765625 -17.78125 C 16.765625 -19.351562 15.992188 -20.140625 14.453125 -20.140625 C 13.742188 -20.140625 13.132812 -19.921875 12.625 -19.484375 C 12.125 -19.054688 11.875 -18.429688 11.875 -17.609375 L 11.875 -15.859375 L 14.90625 -15.859375 C 16.144531 -15.859375 16.765625 -16.5 16.765625 -17.78125 Z M 16.765625 -17.78125 "/></g></g></g></svg>